PathFileType   4   (X/Y/Z)																																																																																																																							
DataRate	CameraRate	NumFrames	NumMarkers	Units	OrigDataRate	OrigDataStartFrame	OrigNumFrames																																																																																																																
120	120	5	37	mm	120	120	136																																																																																																																
Frame#	Time	Sternum	R.Acromium	L.Acromium	Top.Head	R.ASIS	L.ASIS	V.Sacral	R.Thigh.Upper	R.Thigh.Front	R.Thigh.Rear	R.Knee.Lat	R.Knee.Med	R.Shank.Upper	R.Shank.Front	R.Shank.Rear	R.Ankle.Lat	R.Ankle.Med	R.Heel	R.Midfoot.Sup	R.Midfoot.Lat	R.Toe.Lat	R.Toe.Med	R.Toe.Tip	L.Thigh.Upper	L.Thigh.Front	L.Thigh.Rear	L.Knee.Lat	L.Knee.Med	L.Shank.Upper	L.Shank.Front	L.Shank.Rear	L.Ankle.Lat	L.Ankle.Med	L.Heel	L.Midfoot.Sup	L.Midfoot.Lat	L.Toe.Lat	L.Toe.Med	L.Toe.Tip																																																																															
 	 	X1	Y1	Z1	X2	Y2	Z2	X3	Y3	Z3	X4	Y4	Z4	X5	Y5	Z5	X6	Y6	Z6	X7	Y7	Z7	X8	Y8	Z8	X9	Y9	Z9	X10	Y10	Z10	X11	Y11	Z11	X12	Y12	Z12	X13	Y13	Z13	X14	Y14	Z14	X15	Y15	Z15	X16	Y16	Z16	X17	Y17	Z17	X18	Y18	Z18	X19	Y19	Z19	X20	Y20	Z20	X21	Y21	Z21	X22	Y22	Z22	X23	Y23	Z23	X24	Y24	Z24	X25	Y25	Z25	X26	Y26	Z26	X27	Y27	Z27	X28	Y28	Z28	X29	Y29	Z29	X30	Y30	Z30	X31	Y31	Z31	X32	Y32	Z32	X33	Y33	Z33	X34	Y34	Z34	X35	Y35	Z35	X36	Y36	Z36	X37	Y37	Z37	X38	Y38	Z38	X39	Y39	Z39	
																																																																																																																							
	120	1.225	2305.134616	-0.001000353	1234.078938	2242.279983	-161.6639114	1311.893369	2244.92521	164.9109026	1311.158652	2382.742734	-10.07056321	1515.235133	2276.392267	-126.4287728	873.2806275	2281.821996	128.1563878	864.8697046	2087.791174	-6.022778891	891.7880787	2201.87319	-163.1570236	573.2146198	2248.158421	-74.72940176	510.3701151	2178.905823	-154.4047096	462.9647749	2133.007849	-137.316947	388.4878421	2129.563287	-24.75841468	373.3037176	2096.385359	-149.3438724	366.109787	2156.994553	-96.85682453	314.1527687	2089.182524	-158.2831336	282.8690344	2017.762237	-134.0955655	17.14918839	2028.729964	-48.0330811	28.62847868	1953.864082	-83.91925551	-0.862336067	2092.413452	-49.92190453	-0.496045562	2085.907123	-153.2800315	-19.08113214	2170.147573	-162.0397613	-48.70691	2173.34917	-57.59368751	-36.32336056	2231.905961	-88.18151523	-40.35590283	2294.070581	167.6781368	624.1607808	2376.315027	97.4394069	622.0682718	2330.975349	153.3828701	529.8023252	2362.837974	138.945524	410.9123546	2363.560451	31.06670304	412.0108493	2361.41894	156.0706667	385.0512759	2414.484093	102.6419486	348.7859557	2355.482384	166.4841022	340.6607643	2445.453426	133.6260322	51.35762301	2443.751774	45.5255286	74.09132294	2378.572188	81.19863714	19.07841197	2539.314999	55.77109965	60.63110166	2522.104518	150.766436	56.45842996	2586.595686	160.8566492	49.05789237	2602.553422	62.45973316	52.90678175	2648.419088	86.83216932	64.84946039
	121	1.23333	2311.603165	-0.001000353	1233.210803	2248.762818	-161.6639114	1311.036772	2251.40791	164.9109026	1310.301568	2389.262893	-10.07056321	1514.352747	2282.742125	-126.4287728	872.3036824	2288.162057	128.1563878	863.8864426	2094.162712	-6.022778891	891.0307392	2207.096299	-163.1570236	572.2384107	2253.073271	-74.72940176	509.1680346	2183.589395	-154.4047096	462.1023416	2137.327312	-137.316947	387.8510301	2133.808446	-24.75841468	372.6839531	2100.33019	-149.3438724	365.860852	2160.343225	-96.85682453	313.2163678	2092.179021	-158.2831336	282.7076069	2017.734621	-134.0955655	17.81909191	2028.83248	-48.0330811	29.17262313	1953.73532	-83.91925551	0.130954781	2092.284611	-49.92190453	-0.264413298	2085.676211	-153.2800315	-18.81345154	2169.752526	-162.0397613	-48.90188017	2173.022151	-57.59368751	-36.53611812	2231.555889	-88.18151523	-40.89050607	2299.793529	167.6781368	622.9163244	2382.030616	97.4394069	620.5522397	2336.386505	153.3828701	528.4365166	2367.856359	138.945524	409.4419777	2368.58246	31.06670304	410.5380806	2367.912823	156.0706667	384.188373	2421.887328	102.6419486	349.2908558	2363.112506	166.4841022	339.6606606	2460.446666	133.6260322	52.75099316	2458.16466	45.5255286	75.43378805	2393.997849	81.19863714	19.61292888	2554.219759	55.77109965	63.13094039	2537.061665	150.766436	58.74782404	2601.638624	160.8566492	52.13759264	2617.54803	62.45973316	56.18160997	2663.264008	86.83216932	68.68505866
	122	1.24167	2318.164791	-0.001000353	1232.359417	2255.340956	-161.6639114	1310.198716	2257.985893	164.9109026	1309.462952	2395.884166	-10.07056321	1513.484877	2289.170881	-126.4287728	871.336383	2294.580186	128.1563878	862.9123099	2100.615252	-6.022778891	890.3014148	2212.393835	-163.1570236	571.2870816	2258.062928	-74.72940176	507.9934146	2188.350531	-154.4047096	461.2668662	2141.727181	-137.316947	387.2418652	2138.13445	-24.75841468	372.0921153	2104.354069	-149.3438724	365.6497834	2163.754164	-96.85682453	312.3146649	2095.241632	-158.2831336	282.5963836	2017.738312	-134.0955655	18.58666914	2028.966752	-48.0330811	29.81107461	1953.626776	-83.91925551	1.272898238	2092.170901	-49.92190453	0.012896649	2085.446872	-153.2800315	-18.4945395	2169.333777	-162.0397613	-49.10707525	2172.680509	-57.59368751	-36.76195866	2231.185933	-88.18151523	-41.48155191	2305.54936	167.6781368	621.6668363	2387.777591	97.4394069	619.0124995	2341.80863	153.3828701	527.0584572	2372.85828	138.945524	407.9535824	2373.588245	31.06670304	409.0471156	2374.26245	156.0706667	383.3002585	2429.022934	102.6419486	349.6495037	2370.484376	166.4841022	338.6741857	2474.371531	133.6260322	54.07173482	2471.570029	45.5255286	76.69624188	2408.305155	81.19863714	20.19920203	2568.061415	55.77109965	65.39671175	2550.950278	150.766436	60.83372341	2615.593069	160.8566492	54.90173934	2631.459146	62.45973316	59.11253951	2677.041354	86.83216932	72.0951932
	123	1.25	2324.819915	-0.001000353	1231.541398	2262.012833	-161.6639114	1309.394215	2264.657611	164.9109026	1308.657882	2402.599785	-10.07056321	1512.650127	2295.687635	-126.4287728	870.3935164	2301.085617	128.1563878	861.962183	2107.157657	-6.022778891	889.6118713	2217.765057	-163.1570236	570.3726798	2263.123207	-74.72940176	506.8558124	2193.182502	-154.4047096	460.4716958	2146.196693	-137.316947	386.6762263	2142.529711	-24.75841468	371.5442773	2108.449424	-149.3438724	365.4913685	2167.221992	-96.85682453	311.4655294	2098.366746	-158.2831336	282.5501644	2017.782547	-134.0955655	19.46447339	2029.141429	-48.0330811	30.55685569	1953.547578	-83.91925551	2.581057414	2092.079377	-49.92190453	0.344329503	2085.225034	-153.2800315	-18.11524124	2168.894031	-162.0397613	-49.31843191	2172.327715	-57.59368751	-36.99721712	2230.798412	-88.18151523	-42.12916542	2311.350996	167.6781368	620.4278128	2393.568723	97.4394069	617.4659003	2347.256107	153.3828701	525.6844592	2377.86	138.945524	406.4642692	2378.59405	31.06670304	407.5550641	2380.47814	156.0706667	382.3887302	2435.907309	102.6419486	349.8511966	2377.602439	166.4841022	337.6954359	2487.218351	133.6260322	55.24995832	2483.960327	45.5255286	77.81324736	2421.480395	81.19863714	20.76496458	2580.834642	55.77109965	67.3600446	2563.764129	150.766436	62.64735495	2628.456397	160.8566492	57.28180425	2644.284984	62.45973316	61.63141376	2689.751728	86.83216932	75.0128237
	124	1.25833	2331.564946	-0.001000353	1230.774396	2268.771955	-161.6639114	1308.638578	2271.416599	164.9109026	1307.901766	2409.395691	-10.07056321	1511.869043	2302.301322	-126.4287728	869.4897451	2307.687457	128.1563878	861.0508391	2113.79852	-6.022778891	888.9728533	2223.211549	-163.1570236	569.5070724	2268.252845	-74.72940176	505.7651241	2198.08203	-154.4047096	459.7298639	2150.729326	-137.316947	386.1692829	2146.987038	-24.75841468	371.0557818	2112.612288	-149.3438724	365.3997399	2170.74473	-96.85682453	310.6857079	2101.553831	-158.2831336	282.5829888	2017.877874	-134.0955655	20.46425961	2029.366561	-48.0330811	31.42214352	1953.508609	-83.91925551	4.071422829	2092.018367	-49.92190453	0.738378201	2085.018144	-153.2800315	-17.66636686	2168.437568	-162.0397613	-49.53076458	2171.968659	-57.59368751	-37.237111	2230.396908	-88.18151523	-42.83165512	2317.210746	167.6781368	619.2135032	2399.416161	97.4394069	615.9275882	2352.742188	153.3828701	524.3293809	2382.875989	138.945524	404.9895048	2383.614333	31.06670304	406.0773983	2386.567215	156.0706667	381.453705	2442.553991	102.6419486	349.8852908	2384.469394	166.4841022	336.7171499	2498.98189	133.6260322	56.22118849	2495.331868	45.5255286	78.72438989	2433.513968	81.19863714	21.24559392	2592.538227	55.77109965	68.95473983	2575.501113	150.766436	64.12270122	2640.229347	160.8566492	59.21001703	2656.027106	62.45973316	63.67029304	2701.39909	86.83216932	77.36956466
